<svg xmlns="http://www.w3.org/2000/svg" viewBox="0 0 2160 2160"><defs><style>.cls-1{fill:#5865f2;}.cls-2{fill:#fff;}</style></defs><g id="Layer_2" data-name="Layer 2"><g id="Layer_1-2" data-name="Layer 1"><rect class="cls-1" width="2160" height="2160"/><path class="cls-2" d="M832.47412,1064.44751c0-178.84863-38.88086-368.06543-132.19336-536.5459L840.24951,470.8772c108.86426,178.84863,171.07324,365.47363,171.07324,593.57031,0,228.09717-62.209,414.72217-171.07324,593.56982L700.28076,1600.9939C793.59326,1432.51343,832.47412,1243.29663,832.47412,1064.44751Z"/><path class="cls-2" d="M1159.04639,1572.48218c103.68066-33.69727,156.8164-94.60938,156.8164-158.11328h-9.07226c-67.3916,0-129.60059-44.06446-129.60059-121.82422,0-72.57617,59.61621-121.82422,134.78516-121.82422,95.90429,0,147.74414,75.168,147.74414,202.17578,0,152.92969-88.12793,269.57031-256.60938,316.22656Zm18.14355-668.73926c0-75.16846,54.43262-134.78467,129.60059-134.78467,75.16894,0,129.60058,59.61621,129.60058,134.78467s-54.43164,134.78467-129.60058,134.78467C1231.62256,1038.52759,1177.18994,978.91138,1177.18994,903.74292Z"/></g></g></svg>