<svg xmlns="http://www.w3.org/2000/svg" viewBox="0 0 759.43848 1218.24561"><defs><style>.cls-1{fill:#5865f2;}</style></defs><g id="Layer_2" data-name="Layer 2"><g id="Layer_1-2" data-name="Layer 1"><path class="cls-1" d="M132.19336,593.57031C132.19336,414.72168,93.3125,225.50488,0,57.02441L139.96875,0C248.833,178.84863,311.042,365.47363,311.042,593.57031c0,228.09717-62.209,414.72217-171.07324,593.56983L0,1130.1167C93.3125,961.63623,132.19336,772.41943,132.19336,593.57031Z"/><path class="cls-1" d="M458.76562,1101.605C562.44629,1067.90771,615.582,1006.99561,615.582,943.4917h-9.07226c-67.39161,0-129.60059-44.06445-129.60059-121.82422,0-72.57617,59.61621-121.82422,134.78516-121.82422,95.90429,0,147.74414,75.168,147.74414,202.17578,0,152.92969-88.12793,269.57032-256.60938,316.22657Zm18.14356-668.73926c0-75.16845,54.43262-134.78467,129.60059-134.78467,75.16894,0,129.60058,59.61622,129.60058,134.78467S681.67871,567.65039,606.50977,567.65039C531.3418,567.65039,476.90918,508.03418,476.90918,432.86572Z"/></g></g></svg>